<svg width="107" height="32" viewBox="0 0 107 32" fill="none" xmlns="http://www.w3.org/2000/svg">
<rect width="107" height="32" rx="16" fill="black"/>
<path d="M17.6144 15.1261C18.6544 17.17 20.33 18.8383 22.3739 19.8856L23.9628 18.2967C24.1578 18.1017 24.4467 18.0367 24.6994 18.1233C25.5083 18.3906 26.3822 18.535 27.2778 18.535C27.675 18.535 28 18.86 28 19.2572V21.7778C28 22.175 27.675 22.5 27.2778 22.5C20.4961 22.5 15 17.0039 15 10.2222C15 9.825 15.325 9.5 15.7222 9.5H18.25C18.6472 9.5 18.9722 9.825 18.9722 10.2222C18.9722 11.125 19.1167 11.9917 19.3839 12.8006C19.4633 13.0533 19.4056 13.335 19.2033 13.5372L17.6144 15.1261Z" fill="white"/>
<path d="M38.444 15.812C38.444 14.996 38.632 14.264 39.008 13.616C39.392 12.968 39.908 12.464 40.556 12.104C41.212 11.736 41.928 11.552 42.704 11.552C43.592 11.552 44.38 11.772 45.068 12.212C45.764 12.644 46.268 13.26 46.58 14.06H44.936C44.72 13.62 44.42 13.292 44.036 13.076C43.652 12.86 43.208 12.752 42.704 12.752C42.152 12.752 41.66 12.876 41.228 13.124C40.796 13.372 40.456 13.728 40.208 14.192C39.968 14.656 39.848 15.196 39.848 15.812C39.848 16.428 39.968 16.968 40.208 17.432C40.456 17.896 40.796 18.256 41.228 18.512C41.66 18.76 42.152 18.884 42.704 18.884C43.208 18.884 43.652 18.776 44.036 18.56C44.42 18.344 44.72 18.016 44.936 17.576H46.58C46.268 18.376 45.764 18.992 45.068 19.424C44.38 19.856 43.592 20.072 42.704 20.072C41.92 20.072 41.204 19.892 40.556 19.532C39.908 19.164 39.392 18.656 39.008 18.008C38.632 17.36 38.444 16.628 38.444 15.812ZM47.7253 16.664C47.7253 16 47.8613 15.412 48.1333 14.9C48.4133 14.388 48.7893 13.992 49.2613 13.712C49.7413 13.424 50.2693 13.28 50.8453 13.28C51.3653 13.28 51.8173 13.384 52.2013 13.592C52.5933 13.792 52.9053 14.044 53.1373 14.348V13.388H54.5173V20H53.1373V19.016C52.9053 19.328 52.5893 19.588 52.1893 19.796C51.7893 20.004 51.3333 20.108 50.8213 20.108C50.2533 20.108 49.7333 19.964 49.2613 19.676C48.7893 19.38 48.4133 18.972 48.1333 18.452C47.8613 17.924 47.7253 17.328 47.7253 16.664ZM53.1373 16.688C53.1373 16.232 53.0413 15.836 52.8493 15.5C52.6653 15.164 52.4213 14.908 52.1173 14.732C51.8133 14.556 51.4853 14.468 51.1333 14.468C50.7813 14.468 50.4533 14.556 50.1493 14.732C49.8453 14.9 49.5973 15.152 49.4053 15.488C49.2213 15.816 49.1293 16.208 49.1293 16.664C49.1293 17.12 49.2213 17.52 49.4053 17.864C49.5973 18.208 49.8453 18.472 50.1493 18.656C50.4613 18.832 50.7893 18.92 51.1333 18.92C51.4853 18.92 51.8133 18.832 52.1173 18.656C52.4213 18.48 52.6653 18.224 52.8493 17.888C53.0413 17.544 53.1373 17.144 53.1373 16.688ZM57.6821 11.12V20H56.3141V11.12H57.6821ZM60.8461 11.12V20H59.4781V11.12H60.8461ZM72.6114 20H71.2434L67.1274 13.772V20H65.7594V11.648H67.1274L71.2434 17.864V11.648H72.6114V20ZM77.2758 20.108C76.6518 20.108 76.0878 19.968 75.5838 19.688C75.0798 19.4 74.6838 19 74.3958 18.488C74.1078 17.968 73.9638 17.368 73.9638 16.688C73.9638 16.016 74.1118 15.42 74.4078 14.9C74.7038 14.38 75.1078 13.98 75.6198 13.7C76.1318 13.42 76.7038 13.28 77.3358 13.28C77.9678 13.28 78.5398 13.42 79.0518 13.7C79.5638 13.98 79.9678 14.38 80.2638 14.9C80.5598 15.42 80.7078 16.016 80.7078 16.688C80.7078 17.36 80.5558 17.956 80.2518 18.476C79.9478 18.996 79.5318 19.4 79.0038 19.688C78.4838 19.968 77.9078 20.108 77.2758 20.108ZM77.2758 18.92C77.6278 18.92 77.9558 18.836 78.2598 18.668C78.5718 18.5 78.8238 18.248 79.0158 17.912C79.2078 17.576 79.3038 17.168 79.3038 16.688C79.3038 16.208 79.2118 15.804 79.0278 15.476C78.8438 15.14 78.5998 14.888 78.2958 14.72C77.9918 14.552 77.6638 14.468 77.3118 14.468C76.9598 14.468 76.6318 14.552 76.3278 14.72C76.0318 14.888 75.7958 15.14 75.6198 15.476C75.4438 15.804 75.3558 16.208 75.3558 16.688C75.3558 17.4 75.5358 17.952 75.8958 18.344C76.2638 18.728 76.7238 18.92 77.2758 18.92ZM90.9402 13.388L88.8882 20H87.4482L86.1162 15.116L84.7842 20H83.3442L81.2802 13.388H82.6722L84.0522 18.704L85.4562 13.388H86.8842L88.2282 18.68L89.5962 13.388H90.9402Z" fill="white"/>
</svg>
