<svg width="21" height="15" viewBox="0 0 21 15" fill="none" xmlns="http://www.w3.org/2000/svg">
<path d="M19.25 15C19.25 15 20.5 15 20.5 13.75C20.5 12.5 19.25 8.75 14.25 8.75C9.25 8.75 8 12.5 8 13.75C8 15 9.25 15 9.25 15H19.25ZM9.2775 13.75L9.25 13.745C9.25125 13.415 9.45875 12.4575 10.2 11.595C10.89 10.7863 12.1025 10 14.25 10C16.3962 10 17.6087 10.7875 18.3 11.595C19.0413 12.4575 19.2475 13.4163 19.25 13.745L19.24 13.7475L19.2225 13.75H9.2775ZM14.25 6.25C14.913 6.25 15.5489 5.98661 16.0178 5.51777C16.4866 5.04893 16.75 4.41304 16.75 3.75C16.75 3.08696 16.4866 2.45107 16.0178 1.98223C15.5489 1.51339 14.913 1.25 14.25 1.25C13.587 1.25 12.9511 1.51339 12.4822 1.98223C12.0134 2.45107 11.75 3.08696 11.75 3.75C11.75 4.41304 12.0134 5.04893 12.4822 5.51777C12.9511 5.98661 13.587 6.25 14.25 6.25ZM18 3.75C18 4.24246 17.903 4.73009 17.7145 5.18506C17.5261 5.64003 17.2499 6.05343 16.9017 6.40165C16.5534 6.74987 16.14 7.02609 15.6851 7.21455C15.2301 7.403 14.7425 7.5 14.25 7.5C13.7575 7.5 13.2699 7.403 12.8149 7.21455C12.36 7.02609 11.9466 6.74987 11.5983 6.40165C11.2501 6.05343 10.9739 5.64003 10.7855 5.18506C10.597 4.73009 10.5 4.24246 10.5 3.75C10.5 2.75544 10.8951 1.80161 11.5983 1.09835C12.3016 0.395088 13.2554 0 14.25 0C15.2446 0 16.1984 0.395088 16.9017 1.09835C17.6049 1.80161 18 2.75544 18 3.75ZM9.17 9.1C8.6697 8.94364 8.15438 8.84016 7.6325 8.79125C7.33922 8.76265 7.04467 8.74888 6.75 8.75C1.75 8.75 0.5 12.5 0.5 13.75C0.5 14.5833 0.916667 15 1.75 15H7.02C6.83478 14.6097 6.74237 14.1819 6.75 13.75C6.75 12.4875 7.22125 11.1975 8.1125 10.12C8.41625 9.7525 8.77 9.40875 9.17 9.1ZM6.65 10C5.91066 11.1118 5.51106 12.4148 5.5 13.75H1.75C1.75 13.425 1.955 12.4625 2.7 11.595C3.38125 10.8 4.565 10.025 6.65 10.0013V10ZM2.375 4.375C2.375 3.38044 2.77009 2.42661 3.47335 1.72335C4.17661 1.02009 5.13044 0.625 6.125 0.625C7.11956 0.625 8.07339 1.02009 8.77665 1.72335C9.47991 2.42661 9.875 3.38044 9.875 4.375C9.875 5.36956 9.47991 6.32339 8.77665 7.02665C8.07339 7.72991 7.11956 8.125 6.125 8.125C5.13044 8.125 4.17661 7.72991 3.47335 7.02665C2.77009 6.32339 2.375 5.36956 2.375 4.375ZM6.125 1.875C5.46196 1.875 4.82607 2.13839 4.35723 2.60723C3.88839 3.07607 3.625 3.71196 3.625 4.375C3.625 5.03804 3.88839 5.67393 4.35723 6.14277C4.82607 6.61161 5.46196 6.875 6.125 6.875C6.78804 6.875 7.42393 6.61161 7.89277 6.14277C8.36161 5.67393 8.625 5.03804 8.625 4.375C8.625 3.71196 8.36161 3.07607 7.89277 2.60723C7.42393 2.13839 6.78804 1.875 6.125 1.875Z" fill="black"/>
</svg>
