<svg width="14" height="15" viewBox="0 0 14 15" fill="none" xmlns="http://www.w3.org/2000/svg">
<path d="M6.99992 2.49998C7.91659 2.49998 8.66659 3.24998 8.66659 4.16665C8.66659 5.08331 7.91659 5.83331 6.99992 5.83331C6.08325 5.83331 5.33325 5.08331 5.33325 4.16665C5.33325 3.24998 6.08325 2.49998 6.99992 2.49998ZM6.99992 10.8333C9.24992 10.8333 11.8333 11.9083 11.9999 12.5H1.99992C2.19159 11.9 4.75825 10.8333 6.99992 10.8333ZM6.99992 0.833313C5.15825 0.833313 3.66659 2.32498 3.66659 4.16665C3.66659 6.00831 5.15825 7.49998 6.99992 7.49998C8.84159 7.49998 10.3333 6.00831 10.3333 4.16665C10.3333 2.32498 8.84159 0.833313 6.99992 0.833313ZM6.99992 9.16665C4.77492 9.16665 0.333252 10.2833 0.333252 12.5V14.1666H13.6666V12.5C13.6666 10.2833 9.22492 9.16665 6.99992 9.16665Z" fill="black"/>
</svg>
