<svg width="20" height="21" viewBox="0 0 20 21" fill="none" xmlns="http://www.w3.org/2000/svg">
<path d="M12.9167 9.66663C13.6071 9.66663 14.1667 9.10698 14.1667 8.41663C14.1667 7.72627 13.6071 7.16663 12.9167 7.16663C12.2264 7.16663 11.6667 7.72627 11.6667 8.41663C11.6667 9.10698 12.2264 9.66663 12.9167 9.66663Z" fill="black"/>
<path d="M7.08325 9.66663C7.77361 9.66663 8.33325 9.10698 8.33325 8.41663C8.33325 7.72627 7.77361 7.16663 7.08325 7.16663C6.3929 7.16663 5.83325 7.72627 5.83325 8.41663C5.83325 9.10698 6.3929 9.66663 7.08325 9.66663Z" fill="black"/>
<path d="M9.99992 15.5C11.8999 15.5 13.5166 14.1166 14.1666 12.1666H5.83325C6.48325 14.1166 8.09992 15.5 9.99992 15.5Z" fill="black"/>
<path d="M9.99175 2.16663C5.39175 2.16663 1.66675 5.89996 1.66675 10.5C1.66675 15.1 5.39175 18.8333 9.99175 18.8333C14.6001 18.8333 18.3334 15.1 18.3334 10.5C18.3334 5.89996 14.6001 2.16663 9.99175 2.16663ZM10.0001 17.1666C6.31675 17.1666 3.33341 14.1833 3.33341 10.5C3.33341 6.81663 6.31675 3.83329 10.0001 3.83329C13.6834 3.83329 16.6667 6.81663 16.6667 10.5C16.6667 14.1833 13.6834 17.1666 10.0001 17.1666Z" fill="black"/>
</svg>
