<svg width="12" height="12" viewBox="0 0 12 12" fill="none" xmlns="http://www.w3.org/2000/svg">
<path d="M9.175 5.725V4.5C9.175 3.95 8.725 3.5 8.175 3.5H6.5C6.315 3.5 6.14 3.56 6 3.66C5.86 3.56 5.685 3.5 5.5 3.5H3.825C3.275 3.5 2.825 3.95 2.825 4.5V5.725C2.625 5.955 2.5 6.255 2.5 6.585V8.5H3.25V7.75H8.75V8.5H9.5V6.585C9.5 6.255 9.375 5.955 9.175 5.725ZM8.375 5.25H6.375V4.25H8.375V5.25ZM3.625 4.25H5.625V5.25H3.625V4.25ZM8.75 7H3.25V6.5C3.25 6.225 3.475 6 3.75 6H8.25C8.525 6 8.75 6.225 8.75 6.5V7ZM10 2V10H2V2H10ZM10 1H2C1.45 1 1 1.45 1 2V10C1 10.55 1.45 11 2 11H10C10.55 11 11 10.55 11 10V2C11 1.45 10.55 1 10 1Z" fill="#E07100"/>
</svg>
